<mxfile host="Electron" modified="2023-08-29T15:29:48.584Z" agent="Mozilla/5.0 (Macintosh; Intel Mac OS X 10_15_7) AppleWebKit/537.36 (KHTML, like Gecko) draw.io/21.2.8 Chrome/112.0.5615.165 Electron/24.2.0 Safari/537.36" etag="xp9ghLdvbgBPDtW_sg4x" version="21.2.8" type="device">
  <diagram name="Page-1" id="s7iFJKRph6boYEccgbPp">
    <mxGraphModel dx="1080" dy="723" grid="1" gridSize="10" guides="1" tooltips="1" connect="1" arrows="1" fold="1" page="1" pageScale="1" pageWidth="850" pageHeight="1100" math="0" shadow="0">
      <root>
        <mxCell id="0" />
        <mxCell id="1" parent="0" />
        <mxCell id="-9_9eDDFU3y62VpfEBMQ-1" value="Context" style="swimlane;fontStyle=1;childLayout=stackLayout;horizontal=1;startSize=30;fillColor=none;horizontalStack=0;resizeParent=1;resizeParentMax=0;resizeLast=0;collapsible=0;marginBottom=0;fontSize=12;swimlaneHead=1;swimlaneBody=1;connectable=1;allowArrows=1;dropTarget=1;align=left;spacingLeft=5;" parent="1" vertex="1">
          <mxGeometry x="83" y="200" width="120" height="60" as="geometry">
            <mxRectangle x="245" y="370" width="90" height="26" as="alternateBounds" />
          </mxGeometry>
        </mxCell>
        <mxCell id="-9_9eDDFU3y62VpfEBMQ-2" value="Request()" style="text;strokeColor=none;fillColor=none;align=left;verticalAlign=middle;spacingLeft=5;spacingRight=4;overflow=hidden;rotatable=0;points=[[0,0.5],[1,0.5]];portConstraint=eastwest;fontSize=12;fontStyle=0;connectable=0;" parent="-9_9eDDFU3y62VpfEBMQ-1" vertex="1">
          <mxGeometry y="30" width="120" height="30" as="geometry" />
        </mxCell>
        <mxCell id="-9_9eDDFU3y62VpfEBMQ-7" value="State" style="swimlane;fontStyle=3;childLayout=stackLayout;horizontal=1;startSize=30;fillColor=none;horizontalStack=0;resizeParent=1;resizeParentMax=0;resizeLast=0;collapsible=0;marginBottom=0;fontSize=12;swimlaneHead=1;swimlaneBody=1;connectable=1;allowArrows=1;dropTarget=1;align=left;spacingLeft=5;" parent="1" vertex="1">
          <mxGeometry x="380" y="200" width="120" height="60" as="geometry">
            <mxRectangle x="245" y="370" width="90" height="26" as="alternateBounds" />
          </mxGeometry>
        </mxCell>
        <mxCell id="-9_9eDDFU3y62VpfEBMQ-8" value="Handle()" style="text;strokeColor=none;fillColor=none;align=left;verticalAlign=middle;spacingLeft=5;spacingRight=4;overflow=hidden;rotatable=0;points=[[0,0.5],[1,0.5]];portConstraint=eastwest;fontSize=12;fontStyle=2;connectable=0;" parent="-9_9eDDFU3y62VpfEBMQ-7" vertex="1">
          <mxGeometry y="30" width="120" height="30" as="geometry" />
        </mxCell>
        <mxCell id="-9_9eDDFU3y62VpfEBMQ-11" value="ConcreteStateA" style="swimlane;fontStyle=1;childLayout=stackLayout;horizontal=1;startSize=30;fillColor=none;horizontalStack=0;resizeParent=1;resizeParentMax=0;resizeLast=0;collapsible=0;marginBottom=0;fontSize=12;swimlaneHead=1;swimlaneBody=1;connectable=1;allowArrows=1;dropTarget=1;align=left;spacingLeft=5;" parent="1" vertex="1">
          <mxGeometry x="290" y="340" width="120" height="60" as="geometry">
            <mxRectangle x="245" y="370" width="90" height="26" as="alternateBounds" />
          </mxGeometry>
        </mxCell>
        <mxCell id="-9_9eDDFU3y62VpfEBMQ-12" value="Handle()" style="text;strokeColor=none;fillColor=none;align=left;verticalAlign=middle;spacingLeft=5;spacingRight=4;overflow=hidden;rotatable=0;points=[[0,0.5],[1,0.5]];portConstraint=eastwest;fontSize=12;fontStyle=0;connectable=0;" parent="-9_9eDDFU3y62VpfEBMQ-11" vertex="1">
          <mxGeometry y="30" width="120" height="30" as="geometry" />
        </mxCell>
        <mxCell id="-9_9eDDFU3y62VpfEBMQ-15" value="ConcreteStateB" style="swimlane;fontStyle=1;childLayout=stackLayout;horizontal=1;startSize=30;fillColor=none;horizontalStack=0;resizeParent=1;resizeParentMax=0;resizeLast=0;collapsible=0;marginBottom=0;fontSize=12;swimlaneHead=1;swimlaneBody=1;connectable=1;allowArrows=1;dropTarget=1;align=left;spacingLeft=5;" parent="1" vertex="1">
          <mxGeometry x="470" y="340" width="120" height="60" as="geometry">
            <mxRectangle x="245" y="370" width="90" height="26" as="alternateBounds" />
          </mxGeometry>
        </mxCell>
        <mxCell id="-9_9eDDFU3y62VpfEBMQ-18" value="Handle()" style="text;strokeColor=none;fillColor=none;align=left;verticalAlign=middle;spacingLeft=5;spacingRight=4;overflow=hidden;rotatable=0;points=[[0,0.5],[1,0.5]];portConstraint=eastwest;fontSize=12;fontStyle=0;connectable=0;" parent="-9_9eDDFU3y62VpfEBMQ-15" vertex="1">
          <mxGeometry y="30" width="120" height="30" as="geometry" />
        </mxCell>
        <mxCell id="-9_9eDDFU3y62VpfEBMQ-23" value="" style="rounded=0;orthogonalLoop=1;jettySize=auto;html=1;fontSize=12;startSize=8;endArrow=blockThin;endFill=1;exitX=1;exitY=0.25;exitDx=0;exitDy=0;startArrow=diamondThin;startFill=0;entryX=0;entryY=0.25;entryDx=0;entryDy=0;" parent="1" source="-9_9eDDFU3y62VpfEBMQ-1" target="-9_9eDDFU3y62VpfEBMQ-7" edge="1">
          <mxGeometry relative="1" as="geometry">
            <mxPoint x="399" y="228.78128885943534" as="sourcePoint" />
            <mxPoint x="320" y="229.14128885943535" as="targetPoint" />
          </mxGeometry>
        </mxCell>
        <mxCell id="-9_9eDDFU3y62VpfEBMQ-24" value="state" style="edgeLabel;html=1;align=center;verticalAlign=middle;resizable=0;points=[];" parent="-9_9eDDFU3y62VpfEBMQ-23" vertex="1" connectable="0">
          <mxGeometry x="0.2049" y="2" relative="1" as="geometry">
            <mxPoint x="-80" y="-8" as="offset" />
          </mxGeometry>
        </mxCell>
        <mxCell id="-9_9eDDFU3y62VpfEBMQ-25" value="" style="html=1;verticalAlign=bottom;labelBackgroundColor=none;endArrow=oval;endFill=0;endSize=8;rounded=0;fontSize=12;exitX=0.5;exitY=0;exitDx=0;exitDy=0;exitPerimeter=0;anchorPointDirection=0;dashed=1;" parent="1" source="-9_9eDDFU3y62VpfEBMQ-26" edge="1">
          <mxGeometry width="160" relative="1" as="geometry">
            <mxPoint x="308" y="340.5" as="sourcePoint" />
            <mxPoint x="179" y="246" as="targetPoint" />
          </mxGeometry>
        </mxCell>
        <mxCell id="-9_9eDDFU3y62VpfEBMQ-26" value="state-&amp;gt;Handle()" style="shape=note2;boundedLbl=1;whiteSpace=wrap;html=1;size=25;verticalAlign=middle;align=left;spacingLeft=5;fontSize=12;startSize=30;fillColor=none;" parent="1" vertex="1">
          <mxGeometry x="115" y="290" width="128" height="39" as="geometry" />
        </mxCell>
        <mxCell id="-9_9eDDFU3y62VpfEBMQ-27" value="" style="edgeStyle=orthogonalEdgeStyle;rounded=0;orthogonalLoop=1;jettySize=auto;html=1;fontSize=12;startSize=30;endArrow=block;endFill=0;exitX=0.5;exitY=0;exitDx=0;exitDy=0;entryX=0.5;entryY=1;entryDx=0;entryDy=0;" parent="1" source="-9_9eDDFU3y62VpfEBMQ-11" target="-9_9eDDFU3y62VpfEBMQ-7" edge="1">
          <mxGeometry relative="1" as="geometry">
            <mxPoint x="378" y="354" as="sourcePoint" />
            <mxPoint x="378" y="320" as="targetPoint" />
          </mxGeometry>
        </mxCell>
        <mxCell id="-9_9eDDFU3y62VpfEBMQ-29" value="" style="edgeStyle=orthogonalEdgeStyle;rounded=0;orthogonalLoop=1;jettySize=auto;html=1;fontSize=12;startSize=30;endArrow=block;endFill=0;exitX=0.5;exitY=0;exitDx=0;exitDy=0;entryX=0.5;entryY=1;entryDx=0;entryDy=0;" parent="1" source="-9_9eDDFU3y62VpfEBMQ-15" target="-9_9eDDFU3y62VpfEBMQ-7" edge="1">
          <mxGeometry relative="1" as="geometry">
            <mxPoint x="720" y="410" as="sourcePoint" />
            <mxPoint x="540" y="330" as="targetPoint" />
          </mxGeometry>
        </mxCell>
      </root>
    </mxGraphModel>
  </diagram>
</mxfile>
